<mxfile host="app.diagrams.net" modified="2023-05-24T20:33:02.396Z" agent="Mozilla/5.0 (Windows NT 10.0; Win64; x64) AppleWebKit/537.36 (KHTML, like Gecko) Chrome/113.0.0.0 Safari/537.36" etag="v8PTqHZFyDnNS8ExAvaI" version="21.3.2" type="device">
  <diagram name="PÃ¡gina-1" id="JlMTYDhwiu6OwgXYJbhP">
    <mxGraphModel dx="1567" dy="1741" grid="1" gridSize="10" guides="1" tooltips="1" connect="1" arrows="1" fold="1" page="1" pageScale="1" pageWidth="827" pageHeight="1169" math="0" shadow="0">
      <root>
        <mxCell id="0" />
        <mxCell id="1" parent="0" />
        <mxCell id="H6nL4sktDTlcGFrCiZHn-32" value="" style="edgeStyle=orthogonalEdgeStyle;rounded=0;orthogonalLoop=1;jettySize=auto;html=1;" parent="1" source="H6nL4sktDTlcGFrCiZHn-2" target="H6nL4sktDTlcGFrCiZHn-6" edge="1">
          <mxGeometry relative="1" as="geometry">
            <Array as="points">
              <mxPoint x="180" y="325" />
              <mxPoint x="180" y="325" />
            </Array>
          </mxGeometry>
        </mxCell>
        <mxCell id="H6nL4sktDTlcGFrCiZHn-2" value="Tienda" style="swimlane;fontStyle=0;childLayout=stackLayout;horizontal=1;startSize=30;horizontalStack=0;resizeParent=1;resizeParentMax=0;resizeLast=0;collapsible=1;marginBottom=0;whiteSpace=wrap;html=1;" parent="1" vertex="1">
          <mxGeometry x="10" y="280" width="90" height="90" as="geometry" />
        </mxCell>
        <mxCell id="H6nL4sktDTlcGFrCiZHn-3" value="idTienda" style="text;strokeColor=none;fillColor=none;align=left;verticalAlign=middle;spacingLeft=4;spacingRight=4;overflow=hidden;points=[[0,0.5],[1,0.5]];portConstraint=eastwest;rotatable=0;whiteSpace=wrap;html=1;" parent="H6nL4sktDTlcGFrCiZHn-2" vertex="1">
          <mxGeometry y="30" width="90" height="30" as="geometry" />
        </mxCell>
        <mxCell id="H6nL4sktDTlcGFrCiZHn-4" value="nombreTienda" style="text;strokeColor=none;fillColor=none;align=left;verticalAlign=middle;spacingLeft=4;spacingRight=4;overflow=hidden;points=[[0,0.5],[1,0.5]];portConstraint=eastwest;rotatable=0;whiteSpace=wrap;html=1;" parent="H6nL4sktDTlcGFrCiZHn-2" vertex="1">
          <mxGeometry y="60" width="90" height="30" as="geometry" />
        </mxCell>
        <mxCell id="H6nL4sktDTlcGFrCiZHn-6" value="Sucursal" style="swimlane;fontStyle=0;childLayout=stackLayout;horizontal=1;startSize=30;horizontalStack=0;resizeParent=1;resizeParentMax=0;resizeLast=0;collapsible=1;marginBottom=0;whiteSpace=wrap;html=1;" parent="1" vertex="1">
          <mxGeometry x="190" y="280" width="130" height="150" as="geometry" />
        </mxCell>
        <mxCell id="H6nL4sktDTlcGFrCiZHn-8" value="idSucursal" style="text;strokeColor=none;fillColor=none;align=left;verticalAlign=middle;spacingLeft=4;spacingRight=4;overflow=hidden;points=[[0,0.5],[1,0.5]];portConstraint=eastwest;rotatable=0;whiteSpace=wrap;html=1;" parent="H6nL4sktDTlcGFrCiZHn-6" vertex="1">
          <mxGeometry y="30" width="130" height="30" as="geometry" />
        </mxCell>
        <mxCell id="H6nL4sktDTlcGFrCiZHn-7" value="idTienda" style="text;strokeColor=none;fillColor=none;align=left;verticalAlign=middle;spacingLeft=4;spacingRight=4;overflow=hidden;points=[[0,0.5],[1,0.5]];portConstraint=eastwest;rotatable=0;whiteSpace=wrap;html=1;" parent="H6nL4sktDTlcGFrCiZHn-6" vertex="1">
          <mxGeometry y="60" width="130" height="30" as="geometry" />
        </mxCell>
        <mxCell id="H6nL4sktDTlcGFrCiZHn-16" value="nombreSucursal" style="text;strokeColor=none;fillColor=none;align=left;verticalAlign=middle;spacingLeft=4;spacingRight=4;overflow=hidden;points=[[0,0.5],[1,0.5]];portConstraint=eastwest;rotatable=0;whiteSpace=wrap;html=1;" parent="H6nL4sktDTlcGFrCiZHn-6" vertex="1">
          <mxGeometry y="90" width="130" height="30" as="geometry" />
        </mxCell>
        <mxCell id="H6nL4sktDTlcGFrCiZHn-10" value="idUbicacion" style="text;strokeColor=none;fillColor=none;align=left;verticalAlign=middle;spacingLeft=4;spacingRight=4;overflow=hidden;points=[[0,0.5],[1,0.5]];portConstraint=eastwest;rotatable=0;whiteSpace=wrap;html=1;" parent="H6nL4sktDTlcGFrCiZHn-6" vertex="1">
          <mxGeometry y="120" width="130" height="30" as="geometry" />
        </mxCell>
        <mxCell id="H6nL4sktDTlcGFrCiZHn-11" value="Departamento" style="swimlane;fontStyle=0;childLayout=stackLayout;horizontal=1;startSize=30;horizontalStack=0;resizeParent=1;resizeParentMax=0;resizeLast=0;collapsible=1;marginBottom=0;whiteSpace=wrap;html=1;" parent="1" vertex="1">
          <mxGeometry x="520" y="280" width="140" height="210" as="geometry" />
        </mxCell>
        <mxCell id="H6nL4sktDTlcGFrCiZHn-12" value="idDepartamento" style="text;strokeColor=none;fillColor=none;align=left;verticalAlign=middle;spacingLeft=4;spacingRight=4;overflow=hidden;points=[[0,0.5],[1,0.5]];portConstraint=eastwest;rotatable=0;whiteSpace=wrap;html=1;" parent="H6nL4sktDTlcGFrCiZHn-11" vertex="1">
          <mxGeometry y="30" width="140" height="30" as="geometry" />
        </mxCell>
        <mxCell id="H6nL4sktDTlcGFrCiZHn-24" value="idInveDepar" style="text;strokeColor=none;fillColor=none;align=left;verticalAlign=middle;spacingLeft=4;spacingRight=4;overflow=hidden;points=[[0,0.5],[1,0.5]];portConstraint=eastwest;rotatable=0;whiteSpace=wrap;html=1;" parent="H6nL4sktDTlcGFrCiZHn-11" vertex="1">
          <mxGeometry y="60" width="140" height="30" as="geometry" />
        </mxCell>
        <mxCell id="H6nL4sktDTlcGFrCiZHn-89" value="idAlmacen" style="text;strokeColor=none;fillColor=none;align=left;verticalAlign=middle;spacingLeft=4;spacingRight=4;overflow=hidden;points=[[0,0.5],[1,0.5]];portConstraint=eastwest;rotatable=0;whiteSpace=wrap;html=1;" parent="H6nL4sktDTlcGFrCiZHn-11" vertex="1">
          <mxGeometry y="90" width="140" height="30" as="geometry" />
        </mxCell>
        <mxCell id="H6nL4sktDTlcGFrCiZHn-108" value="idSucrusal" style="text;strokeColor=none;fillColor=none;align=left;verticalAlign=middle;spacingLeft=4;spacingRight=4;overflow=hidden;points=[[0,0.5],[1,0.5]];portConstraint=eastwest;rotatable=0;whiteSpace=wrap;html=1;" parent="H6nL4sktDTlcGFrCiZHn-11" vertex="1">
          <mxGeometry y="120" width="140" height="30" as="geometry" />
        </mxCell>
        <mxCell id="H6nL4sktDTlcGFrCiZHn-13" value="nombreDepartamento" style="text;strokeColor=none;fillColor=none;align=left;verticalAlign=middle;spacingLeft=4;spacingRight=4;overflow=hidden;points=[[0,0.5],[1,0.5]];portConstraint=eastwest;rotatable=0;whiteSpace=wrap;html=1;" parent="H6nL4sktDTlcGFrCiZHn-11" vertex="1">
          <mxGeometry y="150" width="140" height="30" as="geometry" />
        </mxCell>
        <mxCell id="H6nL4sktDTlcGFrCiZHn-14" value="encargado" style="text;strokeColor=none;fillColor=none;align=left;verticalAlign=middle;spacingLeft=4;spacingRight=4;overflow=hidden;points=[[0,0.5],[1,0.5]];portConstraint=eastwest;rotatable=0;whiteSpace=wrap;html=1;" parent="H6nL4sktDTlcGFrCiZHn-11" vertex="1">
          <mxGeometry y="180" width="140" height="30" as="geometry" />
        </mxCell>
        <mxCell id="H6nL4sktDTlcGFrCiZHn-34" value="" style="edgeStyle=orthogonalEdgeStyle;rounded=0;orthogonalLoop=1;jettySize=auto;html=1;" parent="1" source="H6nL4sktDTlcGFrCiZHn-18" target="H6nL4sktDTlcGFrCiZHn-6" edge="1">
          <mxGeometry relative="1" as="geometry">
            <mxPoint x="100" y="460" as="targetPoint" />
            <Array as="points">
              <mxPoint x="90" y="420" />
            </Array>
          </mxGeometry>
        </mxCell>
        <mxCell id="H6nL4sktDTlcGFrCiZHn-18" value="Ubicacion" style="swimlane;fontStyle=0;childLayout=stackLayout;horizontal=1;startSize=30;horizontalStack=0;resizeParent=1;resizeParentMax=0;resizeLast=0;collapsible=1;marginBottom=0;whiteSpace=wrap;html=1;" parent="1" vertex="1">
          <mxGeometry x="10" y="560" width="140" height="120" as="geometry" />
        </mxCell>
        <mxCell id="H6nL4sktDTlcGFrCiZHn-19" value="IdUbicacion" style="text;strokeColor=none;fillColor=none;align=left;verticalAlign=middle;spacingLeft=4;spacingRight=4;overflow=hidden;points=[[0,0.5],[1,0.5]];portConstraint=eastwest;rotatable=0;whiteSpace=wrap;html=1;" parent="H6nL4sktDTlcGFrCiZHn-18" vertex="1">
          <mxGeometry y="30" width="140" height="30" as="geometry" />
        </mxCell>
        <mxCell id="H6nL4sktDTlcGFrCiZHn-20" value="idDomicilio" style="text;strokeColor=none;fillColor=none;align=left;verticalAlign=middle;spacingLeft=4;spacingRight=4;overflow=hidden;points=[[0,0.5],[1,0.5]];portConstraint=eastwest;rotatable=0;whiteSpace=wrap;html=1;" parent="H6nL4sktDTlcGFrCiZHn-18" vertex="1">
          <mxGeometry y="60" width="140" height="30" as="geometry" />
        </mxCell>
        <mxCell id="H6nL4sktDTlcGFrCiZHn-22" value="telSucursal" style="text;strokeColor=none;fillColor=none;align=left;verticalAlign=middle;spacingLeft=4;spacingRight=4;overflow=hidden;points=[[0,0.5],[1,0.5]];portConstraint=eastwest;rotatable=0;whiteSpace=wrap;html=1;" parent="H6nL4sktDTlcGFrCiZHn-18" vertex="1">
          <mxGeometry y="90" width="140" height="30" as="geometry" />
        </mxCell>
        <mxCell id="H6nL4sktDTlcGFrCiZHn-25" value="idInveDepar" style="swimlane;fontStyle=0;childLayout=stackLayout;horizontal=1;startSize=30;horizontalStack=0;resizeParent=1;resizeParentMax=0;resizeLast=0;collapsible=1;marginBottom=0;whiteSpace=wrap;html=1;" parent="1" vertex="1">
          <mxGeometry x="780" y="280" width="140" height="150" as="geometry" />
        </mxCell>
        <mxCell id="H6nL4sktDTlcGFrCiZHn-26" value="idInventario" style="text;strokeColor=none;fillColor=none;align=left;verticalAlign=middle;spacingLeft=4;spacingRight=4;overflow=hidden;points=[[0,0.5],[1,0.5]];portConstraint=eastwest;rotatable=0;whiteSpace=wrap;html=1;" parent="H6nL4sktDTlcGFrCiZHn-25" vertex="1">
          <mxGeometry y="30" width="140" height="30" as="geometry" />
        </mxCell>
        <mxCell id="TFvELjVV-jPQlSv1txzt-5" value="idProveedor" style="text;strokeColor=none;fillColor=none;align=left;verticalAlign=middle;spacingLeft=4;spacingRight=4;overflow=hidden;points=[[0,0.5],[1,0.5]];portConstraint=eastwest;rotatable=0;whiteSpace=wrap;html=1;" vertex="1" parent="H6nL4sktDTlcGFrCiZHn-25">
          <mxGeometry y="60" width="140" height="30" as="geometry" />
        </mxCell>
        <mxCell id="H6nL4sktDTlcGFrCiZHn-27" value="Producto en tienda" style="text;strokeColor=none;fillColor=none;align=left;verticalAlign=middle;spacingLeft=4;spacingRight=4;overflow=hidden;points=[[0,0.5],[1,0.5]];portConstraint=eastwest;rotatable=0;whiteSpace=wrap;html=1;" parent="H6nL4sktDTlcGFrCiZHn-25" vertex="1">
          <mxGeometry y="90" width="140" height="30" as="geometry" />
        </mxCell>
        <mxCell id="H6nL4sktDTlcGFrCiZHn-28" value="Precio en mostrador" style="text;strokeColor=none;fillColor=none;align=left;verticalAlign=middle;spacingLeft=4;spacingRight=4;overflow=hidden;points=[[0,0.5],[1,0.5]];portConstraint=eastwest;rotatable=0;whiteSpace=wrap;html=1;" parent="H6nL4sktDTlcGFrCiZHn-25" vertex="1">
          <mxGeometry y="120" width="140" height="30" as="geometry" />
        </mxCell>
        <mxCell id="H6nL4sktDTlcGFrCiZHn-50" style="edgeStyle=orthogonalEdgeStyle;rounded=0;orthogonalLoop=1;jettySize=auto;html=1;entryX=0.792;entryY=1.233;entryDx=0;entryDy=0;entryPerimeter=0;" parent="1" source="H6nL4sktDTlcGFrCiZHn-36" target="H6nL4sktDTlcGFrCiZHn-10" edge="1">
          <mxGeometry relative="1" as="geometry">
            <mxPoint x="318.04999999999995" y="451.99" as="targetPoint" />
          </mxGeometry>
        </mxCell>
        <mxCell id="H6nL4sktDTlcGFrCiZHn-36" value="Empleados" style="swimlane;fontStyle=0;childLayout=stackLayout;horizontal=1;startSize=30;horizontalStack=0;resizeParent=1;resizeParentMax=0;resizeLast=0;collapsible=1;marginBottom=0;whiteSpace=wrap;html=1;" parent="1" vertex="1">
          <mxGeometry x="320" y="560" width="140" height="270" as="geometry" />
        </mxCell>
        <mxCell id="H6nL4sktDTlcGFrCiZHn-37" value="idEmpleado" style="text;strokeColor=none;fillColor=none;align=left;verticalAlign=middle;spacingLeft=4;spacingRight=4;overflow=hidden;points=[[0,0.5],[1,0.5]];portConstraint=eastwest;rotatable=0;whiteSpace=wrap;html=1;" parent="H6nL4sktDTlcGFrCiZHn-36" vertex="1">
          <mxGeometry y="30" width="140" height="30" as="geometry" />
        </mxCell>
        <mxCell id="H6nL4sktDTlcGFrCiZHn-69" value="idSucursal" style="text;strokeColor=none;fillColor=none;align=left;verticalAlign=middle;spacingLeft=4;spacingRight=4;overflow=hidden;points=[[0,0.5],[1,0.5]];portConstraint=eastwest;rotatable=0;whiteSpace=wrap;html=1;" parent="H6nL4sktDTlcGFrCiZHn-36" vertex="1">
          <mxGeometry y="60" width="140" height="30" as="geometry" />
        </mxCell>
        <mxCell id="H6nL4sktDTlcGFrCiZHn-77" value="idDomicilio" style="text;strokeColor=none;fillColor=none;align=left;verticalAlign=middle;spacingLeft=4;spacingRight=4;overflow=hidden;points=[[0,0.5],[1,0.5]];portConstraint=eastwest;rotatable=0;whiteSpace=wrap;html=1;" parent="H6nL4sktDTlcGFrCiZHn-36" vertex="1">
          <mxGeometry y="90" width="140" height="30" as="geometry" />
        </mxCell>
        <mxCell id="H6nL4sktDTlcGFrCiZHn-42" value="idSalario" style="text;strokeColor=none;fillColor=none;align=left;verticalAlign=middle;spacingLeft=4;spacingRight=4;overflow=hidden;points=[[0,0.5],[1,0.5]];portConstraint=eastwest;rotatable=0;whiteSpace=wrap;html=1;" parent="H6nL4sktDTlcGFrCiZHn-36" vertex="1">
          <mxGeometry y="120" width="140" height="30" as="geometry" />
        </mxCell>
        <mxCell id="H6nL4sktDTlcGFrCiZHn-38" value="nombreEmpleado" style="text;strokeColor=none;fillColor=none;align=left;verticalAlign=middle;spacingLeft=4;spacingRight=4;overflow=hidden;points=[[0,0.5],[1,0.5]];portConstraint=eastwest;rotatable=0;whiteSpace=wrap;html=1;" parent="H6nL4sktDTlcGFrCiZHn-36" vertex="1">
          <mxGeometry y="150" width="140" height="30" as="geometry" />
        </mxCell>
        <mxCell id="H6nL4sktDTlcGFrCiZHn-39" value="telEmpleado" style="text;strokeColor=none;fillColor=none;align=left;verticalAlign=middle;spacingLeft=4;spacingRight=4;overflow=hidden;points=[[0,0.5],[1,0.5]];portConstraint=eastwest;rotatable=0;whiteSpace=wrap;html=1;" parent="H6nL4sktDTlcGFrCiZHn-36" vertex="1">
          <mxGeometry y="180" width="140" height="30" as="geometry" />
        </mxCell>
        <mxCell id="H6nL4sktDTlcGFrCiZHn-40" value="NSS" style="text;strokeColor=none;fillColor=none;align=left;verticalAlign=middle;spacingLeft=4;spacingRight=4;overflow=hidden;points=[[0,0.5],[1,0.5]];portConstraint=eastwest;rotatable=0;whiteSpace=wrap;html=1;" parent="H6nL4sktDTlcGFrCiZHn-36" vertex="1">
          <mxGeometry y="210" width="140" height="30" as="geometry" />
        </mxCell>
        <mxCell id="H6nL4sktDTlcGFrCiZHn-41" value="CLABE" style="text;strokeColor=none;fillColor=none;align=left;verticalAlign=middle;spacingLeft=4;spacingRight=4;overflow=hidden;points=[[0,0.5],[1,0.5]];portConstraint=eastwest;rotatable=0;whiteSpace=wrap;html=1;" parent="H6nL4sktDTlcGFrCiZHn-36" vertex="1">
          <mxGeometry y="240" width="140" height="30" as="geometry" />
        </mxCell>
        <mxCell id="H6nL4sktDTlcGFrCiZHn-49" value="" style="edgeStyle=orthogonalEdgeStyle;rounded=0;orthogonalLoop=1;jettySize=auto;html=1;" parent="1" source="H6nL4sktDTlcGFrCiZHn-44" target="H6nL4sktDTlcGFrCiZHn-42" edge="1">
          <mxGeometry relative="1" as="geometry" />
        </mxCell>
        <mxCell id="H6nL4sktDTlcGFrCiZHn-44" value="Salario" style="swimlane;fontStyle=0;childLayout=stackLayout;horizontal=1;startSize=30;horizontalStack=0;resizeParent=1;resizeParentMax=0;resizeLast=0;collapsible=1;marginBottom=0;whiteSpace=wrap;html=1;" parent="1" vertex="1">
          <mxGeometry x="620" y="750" width="140" height="150" as="geometry" />
        </mxCell>
        <mxCell id="H6nL4sktDTlcGFrCiZHn-45" value="idSalario" style="text;strokeColor=none;fillColor=none;align=left;verticalAlign=middle;spacingLeft=4;spacingRight=4;overflow=hidden;points=[[0,0.5],[1,0.5]];portConstraint=eastwest;rotatable=0;whiteSpace=wrap;html=1;" parent="H6nL4sktDTlcGFrCiZHn-44" vertex="1">
          <mxGeometry y="30" width="140" height="30" as="geometry" />
        </mxCell>
        <mxCell id="H6nL4sktDTlcGFrCiZHn-46" value="Puesto" style="text;strokeColor=none;fillColor=none;align=left;verticalAlign=middle;spacingLeft=4;spacingRight=4;overflow=hidden;points=[[0,0.5],[1,0.5]];portConstraint=eastwest;rotatable=0;whiteSpace=wrap;html=1;" parent="H6nL4sktDTlcGFrCiZHn-44" vertex="1">
          <mxGeometry y="60" width="140" height="30" as="geometry" />
        </mxCell>
        <mxCell id="H6nL4sktDTlcGFrCiZHn-47" value="Salario" style="text;strokeColor=none;fillColor=none;align=left;verticalAlign=middle;spacingLeft=4;spacingRight=4;overflow=hidden;points=[[0,0.5],[1,0.5]];portConstraint=eastwest;rotatable=0;whiteSpace=wrap;html=1;" parent="H6nL4sktDTlcGFrCiZHn-44" vertex="1">
          <mxGeometry y="90" width="140" height="30" as="geometry" />
        </mxCell>
        <mxCell id="H6nL4sktDTlcGFrCiZHn-48" value="Prestaciones" style="text;strokeColor=none;fillColor=none;align=left;verticalAlign=middle;spacingLeft=4;spacingRight=4;overflow=hidden;points=[[0,0.5],[1,0.5]];portConstraint=eastwest;rotatable=0;whiteSpace=wrap;html=1;" parent="H6nL4sktDTlcGFrCiZHn-44" vertex="1">
          <mxGeometry y="120" width="140" height="30" as="geometry" />
        </mxCell>
        <mxCell id="H6nL4sktDTlcGFrCiZHn-51" value="Proveedor" style="swimlane;fontStyle=0;childLayout=stackLayout;horizontal=1;startSize=30;horizontalStack=0;resizeParent=1;resizeParentMax=0;resizeLast=0;collapsible=1;marginBottom=0;whiteSpace=wrap;html=1;" parent="1" vertex="1">
          <mxGeometry x="780" y="-30" width="140" height="180" as="geometry" />
        </mxCell>
        <mxCell id="H6nL4sktDTlcGFrCiZHn-52" value="idProveedor" style="text;strokeColor=none;fillColor=none;align=left;verticalAlign=middle;spacingLeft=4;spacingRight=4;overflow=hidden;points=[[0,0.5],[1,0.5]];portConstraint=eastwest;rotatable=0;whiteSpace=wrap;html=1;" parent="H6nL4sktDTlcGFrCiZHn-51" vertex="1">
          <mxGeometry y="30" width="140" height="30" as="geometry" />
        </mxCell>
        <mxCell id="H6nL4sktDTlcGFrCiZHn-53" value="nombreProveedor" style="text;strokeColor=none;fillColor=none;align=left;verticalAlign=middle;spacingLeft=4;spacingRight=4;overflow=hidden;points=[[0,0.5],[1,0.5]];portConstraint=eastwest;rotatable=0;whiteSpace=wrap;html=1;" parent="H6nL4sktDTlcGFrCiZHn-51" vertex="1">
          <mxGeometry y="60" width="140" height="30" as="geometry" />
        </mxCell>
        <mxCell id="H6nL4sktDTlcGFrCiZHn-54" value="productoProveedor" style="text;strokeColor=none;fillColor=none;align=left;verticalAlign=middle;spacingLeft=4;spacingRight=4;overflow=hidden;points=[[0,0.5],[1,0.5]];portConstraint=eastwest;rotatable=0;whiteSpace=wrap;html=1;" parent="H6nL4sktDTlcGFrCiZHn-51" vertex="1">
          <mxGeometry y="90" width="140" height="30" as="geometry" />
        </mxCell>
        <mxCell id="H6nL4sktDTlcGFrCiZHn-55" value="precioUnitario" style="text;strokeColor=none;fillColor=none;align=left;verticalAlign=middle;spacingLeft=4;spacingRight=4;overflow=hidden;points=[[0,0.5],[1,0.5]];portConstraint=eastwest;rotatable=0;whiteSpace=wrap;html=1;" parent="H6nL4sktDTlcGFrCiZHn-51" vertex="1">
          <mxGeometry y="120" width="140" height="30" as="geometry" />
        </mxCell>
        <mxCell id="H6nL4sktDTlcGFrCiZHn-60" value="cantidadProducto" style="text;strokeColor=none;fillColor=none;align=left;verticalAlign=middle;spacingLeft=4;spacingRight=4;overflow=hidden;points=[[0,0.5],[1,0.5]];portConstraint=eastwest;rotatable=0;whiteSpace=wrap;html=1;" parent="H6nL4sktDTlcGFrCiZHn-51" vertex="1">
          <mxGeometry y="150" width="140" height="30" as="geometry" />
        </mxCell>
        <mxCell id="H6nL4sktDTlcGFrCiZHn-56" value="Almacen" style="swimlane;fontStyle=0;childLayout=stackLayout;horizontal=1;startSize=30;horizontalStack=0;resizeParent=1;resizeParentMax=0;resizeLast=0;collapsible=1;marginBottom=0;whiteSpace=wrap;html=1;" parent="1" vertex="1">
          <mxGeometry x="490" y="-60" width="140" height="220" as="geometry" />
        </mxCell>
        <mxCell id="H6nL4sktDTlcGFrCiZHn-57" value="idAlmacen" style="text;strokeColor=none;fillColor=none;align=left;verticalAlign=middle;spacingLeft=4;spacingRight=4;overflow=hidden;points=[[0,0.5],[1,0.5]];portConstraint=eastwest;rotatable=0;whiteSpace=wrap;html=1;" parent="H6nL4sktDTlcGFrCiZHn-56" vertex="1">
          <mxGeometry y="30" width="140" height="30" as="geometry" />
        </mxCell>
        <mxCell id="H6nL4sktDTlcGFrCiZHn-81" value="idProveedor" style="text;strokeColor=none;fillColor=none;align=left;verticalAlign=middle;spacingLeft=4;spacingRight=4;overflow=hidden;points=[[0,0.5],[1,0.5]];portConstraint=eastwest;rotatable=0;whiteSpace=wrap;html=1;" parent="H6nL4sktDTlcGFrCiZHn-56" vertex="1">
          <mxGeometry y="60" width="140" height="30" as="geometry" />
        </mxCell>
        <mxCell id="H6nL4sktDTlcGFrCiZHn-100" value="nombreAlmacen" style="text;strokeColor=none;fillColor=none;align=left;verticalAlign=middle;spacingLeft=4;spacingRight=4;overflow=hidden;points=[[0,0.5],[1,0.5]];portConstraint=eastwest;rotatable=0;whiteSpace=wrap;html=1;" parent="H6nL4sktDTlcGFrCiZHn-56" vertex="1">
          <mxGeometry y="90" width="140" height="40" as="geometry" />
        </mxCell>
        <mxCell id="H6nL4sktDTlcGFrCiZHn-82" value="Existencia" style="text;strokeColor=none;fillColor=none;align=left;verticalAlign=middle;spacingLeft=4;spacingRight=4;overflow=hidden;points=[[0,0.5],[1,0.5]];portConstraint=eastwest;rotatable=0;whiteSpace=wrap;html=1;" parent="H6nL4sktDTlcGFrCiZHn-56" vertex="1">
          <mxGeometry y="130" width="140" height="30" as="geometry" />
        </mxCell>
        <mxCell id="H6nL4sktDTlcGFrCiZHn-83" value="Bajas" style="text;strokeColor=none;fillColor=none;align=left;verticalAlign=middle;spacingLeft=4;spacingRight=4;overflow=hidden;points=[[0,0.5],[1,0.5]];portConstraint=eastwest;rotatable=0;whiteSpace=wrap;html=1;" parent="H6nL4sktDTlcGFrCiZHn-56" vertex="1">
          <mxGeometry y="160" width="140" height="30" as="geometry" />
        </mxCell>
        <mxCell id="H6nL4sktDTlcGFrCiZHn-84" value="Devoluciones" style="text;strokeColor=none;fillColor=none;align=left;verticalAlign=middle;spacingLeft=4;spacingRight=4;overflow=hidden;points=[[0,0.5],[1,0.5]];portConstraint=eastwest;rotatable=0;whiteSpace=wrap;html=1;" parent="H6nL4sktDTlcGFrCiZHn-56" vertex="1">
          <mxGeometry y="190" width="140" height="30" as="geometry" />
        </mxCell>
        <mxCell id="H6nL4sktDTlcGFrCiZHn-71" value="Domicilio" style="swimlane;fontStyle=0;childLayout=stackLayout;horizontal=1;startSize=30;horizontalStack=0;resizeParent=1;resizeParentMax=0;resizeLast=0;collapsible=1;marginBottom=0;whiteSpace=wrap;html=1;" parent="1" vertex="1">
          <mxGeometry x="110" y="780" width="140" height="90" as="geometry" />
        </mxCell>
        <mxCell id="H6nL4sktDTlcGFrCiZHn-72" value="idDomicilio" style="text;strokeColor=none;fillColor=none;align=left;verticalAlign=middle;spacingLeft=4;spacingRight=4;overflow=hidden;points=[[0,0.5],[1,0.5]];portConstraint=eastwest;rotatable=0;whiteSpace=wrap;html=1;" parent="H6nL4sktDTlcGFrCiZHn-71" vertex="1">
          <mxGeometry y="30" width="140" height="30" as="geometry" />
        </mxCell>
        <mxCell id="H6nL4sktDTlcGFrCiZHn-73" value="C. P." style="text;strokeColor=none;fillColor=none;align=left;verticalAlign=middle;spacingLeft=4;spacingRight=4;overflow=hidden;points=[[0,0.5],[1,0.5]];portConstraint=eastwest;rotatable=0;whiteSpace=wrap;html=1;" parent="H6nL4sktDTlcGFrCiZHn-71" vertex="1">
          <mxGeometry y="60" width="140" height="30" as="geometry" />
        </mxCell>
        <mxCell id="H6nL4sktDTlcGFrCiZHn-75" value="" style="endArrow=classic;html=1;rounded=0;entryX=1.014;entryY=0.133;entryDx=0;entryDy=0;entryPerimeter=0;" parent="1" target="H6nL4sktDTlcGFrCiZHn-18" edge="1">
          <mxGeometry width="50" height="50" relative="1" as="geometry">
            <mxPoint x="180" y="780" as="sourcePoint" />
            <mxPoint x="230" y="730" as="targetPoint" />
            <Array as="points">
              <mxPoint x="180" y="576" />
            </Array>
          </mxGeometry>
        </mxCell>
        <mxCell id="H6nL4sktDTlcGFrCiZHn-76" value="" style="edgeStyle=orthogonalEdgeStyle;rounded=0;orthogonalLoop=1;jettySize=auto;html=1;" parent="1" source="H6nL4sktDTlcGFrCiZHn-72" target="H6nL4sktDTlcGFrCiZHn-42" edge="1">
          <mxGeometry relative="1" as="geometry" />
        </mxCell>
        <mxCell id="H6nL4sktDTlcGFrCiZHn-90" value="" style="endArrow=classic;html=1;rounded=0;" parent="1" source="H6nL4sktDTlcGFrCiZHn-56" edge="1">
          <mxGeometry width="50" height="50" relative="1" as="geometry">
            <mxPoint x="620" y="340" as="sourcePoint" />
            <mxPoint x="560" y="280" as="targetPoint" />
          </mxGeometry>
        </mxCell>
        <mxCell id="H6nL4sktDTlcGFrCiZHn-91" value="" style="endArrow=classic;html=1;rounded=0;exitX=1.006;exitY=-0.018;exitDx=0;exitDy=0;exitPerimeter=0;entryX=-0.003;entryY=-0.057;entryDx=0;entryDy=0;entryPerimeter=0;" parent="1" source="H6nL4sktDTlcGFrCiZHn-16" edge="1">
          <mxGeometry width="50" height="50" relative="1" as="geometry">
            <mxPoint x="320" y="400" as="sourcePoint" />
            <mxPoint x="519.5799999999999" y="368.28999999999996" as="targetPoint" />
            <Array as="points">
              <mxPoint x="350" y="370" />
              <mxPoint x="460" y="370" />
            </Array>
          </mxGeometry>
        </mxCell>
        <mxCell id="H6nL4sktDTlcGFrCiZHn-92" value="Ventas" style="swimlane;fontStyle=0;childLayout=stackLayout;horizontal=1;startSize=30;horizontalStack=0;resizeParent=1;resizeParentMax=0;resizeLast=0;collapsible=1;marginBottom=0;whiteSpace=wrap;html=1;" parent="1" vertex="1">
          <mxGeometry x="770" y="490" width="140" height="150" as="geometry" />
        </mxCell>
        <mxCell id="H6nL4sktDTlcGFrCiZHn-93" value="idVentas" style="text;strokeColor=none;fillColor=none;align=left;verticalAlign=middle;spacingLeft=4;spacingRight=4;overflow=hidden;points=[[0,0.5],[1,0.5]];portConstraint=eastwest;rotatable=0;whiteSpace=wrap;html=1;" parent="H6nL4sktDTlcGFrCiZHn-92" vertex="1">
          <mxGeometry y="30" width="140" height="30" as="geometry" />
        </mxCell>
        <mxCell id="TFvELjVV-jPQlSv1txzt-1" value="idDepartamento" style="text;strokeColor=none;fillColor=none;align=left;verticalAlign=middle;spacingLeft=4;spacingRight=4;overflow=hidden;points=[[0,0.5],[1,0.5]];portConstraint=eastwest;rotatable=0;whiteSpace=wrap;html=1;" vertex="1" parent="H6nL4sktDTlcGFrCiZHn-92">
          <mxGeometry y="60" width="140" height="30" as="geometry" />
        </mxCell>
        <mxCell id="H6nL4sktDTlcGFrCiZHn-94" value="totalNumVentaDia" style="text;strokeColor=none;fillColor=none;align=left;verticalAlign=middle;spacingLeft=4;spacingRight=4;overflow=hidden;points=[[0,0.5],[1,0.5]];portConstraint=eastwest;rotatable=0;whiteSpace=wrap;html=1;" parent="H6nL4sktDTlcGFrCiZHn-92" vertex="1">
          <mxGeometry y="90" width="140" height="30" as="geometry" />
        </mxCell>
        <mxCell id="H6nL4sktDTlcGFrCiZHn-98" value="totalIngresoDia" style="text;strokeColor=none;fillColor=none;align=left;verticalAlign=middle;spacingLeft=4;spacingRight=4;overflow=hidden;points=[[0,0.5],[1,0.5]];portConstraint=eastwest;rotatable=0;whiteSpace=wrap;html=1;" parent="H6nL4sktDTlcGFrCiZHn-92" vertex="1">
          <mxGeometry y="120" width="140" height="30" as="geometry" />
        </mxCell>
        <mxCell id="H6nL4sktDTlcGFrCiZHn-105" value="" style="endArrow=classic;html=1;rounded=0;" parent="1" edge="1">
          <mxGeometry width="50" height="50" relative="1" as="geometry">
            <mxPoint x="660" y="380" as="sourcePoint" />
            <mxPoint x="780" y="380" as="targetPoint" />
          </mxGeometry>
        </mxCell>
        <mxCell id="H6nL4sktDTlcGFrCiZHn-106" value="" style="endArrow=classic;html=1;rounded=0;exitX=0.518;exitY=1.12;exitDx=0;exitDy=0;exitPerimeter=0;" parent="1" source="H6nL4sktDTlcGFrCiZHn-14" edge="1">
          <mxGeometry width="50" height="50" relative="1" as="geometry">
            <mxPoint x="610" y="690" as="sourcePoint" />
            <mxPoint x="760" y="560" as="targetPoint" />
            <Array as="points">
              <mxPoint x="593" y="560" />
            </Array>
          </mxGeometry>
        </mxCell>
        <mxCell id="TFvELjVV-jPQlSv1txzt-3" value="" style="endArrow=classic;html=1;rounded=0;exitX=0.547;exitY=1.104;exitDx=0;exitDy=0;exitPerimeter=0;entryX=0.563;entryY=-0.008;entryDx=0;entryDy=0;entryPerimeter=0;" edge="1" parent="1" source="H6nL4sktDTlcGFrCiZHn-60" target="H6nL4sktDTlcGFrCiZHn-25">
          <mxGeometry width="50" height="50" relative="1" as="geometry">
            <mxPoint x="950" y="150" as="sourcePoint" />
            <mxPoint x="950" y="270" as="targetPoint" />
            <Array as="points">
              <mxPoint x="857" y="220" />
            </Array>
          </mxGeometry>
        </mxCell>
        <mxCell id="TFvELjVV-jPQlSv1txzt-4" value="" style="endArrow=classic;html=1;rounded=0;exitX=0.017;exitY=0.043;exitDx=0;exitDy=0;exitPerimeter=0;entryX=1;entryY=0.5;entryDx=0;entryDy=0;" edge="1" parent="1" source="H6nL4sktDTlcGFrCiZHn-51" target="H6nL4sktDTlcGFrCiZHn-57">
          <mxGeometry width="50" height="50" relative="1" as="geometry">
            <mxPoint x="720" y="60" as="sourcePoint" />
            <mxPoint x="720" y="180" as="targetPoint" />
          </mxGeometry>
        </mxCell>
      </root>
    </mxGraphModel>
  </diagram>
</mxfile>
